<svg width="318" height="400" viewBox="0 0 318 400" fill="none" xmlns="http://www.w3.org/2000/svg">
<rect width="318" height="400" rx="4" fill="#E4F1FD"/>
<path fill-rule="evenodd" clip-rule="evenodd" d="M166.684 188.289L185.762 218.689V165.556H117.005V217.664L129.974 197.172C130.383 196.527 131.122 196.527 131.531 197.172L155.824 235.556H185.762V223.232C185.608 223.149 185.463 223.017 185.342 222.823L165.902 191.848L149.994 217.196C149.579 217.86 148.891 217.878 148.459 217.239C148.027 216.6 148.014 215.546 148.43 214.883L165.12 188.289C165.529 187.637 166.275 187.637 166.684 188.289ZM117.005 222.42V235.556H152.795L130.752 200.724L117.06 222.362C117.051 222.375 117.041 222.384 117.031 222.392C117.022 222.4 117.013 222.408 117.005 222.42ZM115.919 162.222H186.848C187.447 162.222 187.933 162.968 187.933 163.889V237.222C187.933 238.143 187.447 238.889 186.848 238.889H115.919C115.32 238.889 114.833 238.143 114.833 237.222V163.889C114.833 162.968 115.32 162.222 115.919 162.222ZM152.469 187.778C152.469 193.291 149.547 197.778 145.955 197.778C142.363 197.778 139.441 193.291 139.441 187.778C139.441 182.265 142.363 177.778 145.955 177.778C149.547 177.778 152.469 182.265 152.469 187.778Z" fill="#3FA2F7"/>
</svg>
