<svg width="48" height="60" viewBox="0 0 48 60" fill="none" xmlns="http://www.w3.org/2000/svg">
<g clip-path="url(#clip0)">
<path d="M36.29 48H9.71C9.2228 48 8.74036 47.904 8.29024 47.7176C7.84013 47.5311 7.43114 47.2579 7.08663 46.9134C6.39087 46.2176 6 45.274 6 44.29V23.71C6 22.726 6.39087 21.7824 7.08663 21.0866C7.78239 20.3909 8.72605 20 9.71 20H36.29C37.274 20 38.2176 20.3909 38.9134 21.0866C39.6091 21.7824 40 22.726 40 23.71V44.29C40 45.274 39.6091 46.2176 38.9134 46.9134C38.2176 47.6091 37.274 48 36.29 48ZM9.71 22C9.25729 22.0026 8.82387 22.1836 8.50375 22.5037C8.18363 22.8239 8.00262 23.2573 8 23.71V44.29C8.00262 44.7427 8.18363 45.1761 8.50375 45.4963C8.82387 45.8164 9.25729 45.9974 9.71 46H36.29C36.7427 45.9974 37.1761 45.8164 37.4963 45.4963C37.8164 45.1761 37.9974 44.7427 38 44.29V23.71C37.9974 23.2573 37.8164 22.8239 37.4963 22.5037C37.1761 22.1836 36.7427 22.0026 36.29 22H9.71Z" fill="black"/>
<path d="M25.19 39.6H20.81C20.4436 39.5986 20.0824 39.514 19.7535 39.3526C19.4246 39.1912 19.1366 38.9573 18.9113 38.6684C18.686 38.3795 18.5292 38.0433 18.4527 37.685C18.3763 37.3267 18.3822 36.9557 18.47 36.6L19.47 32.54C18.8874 31.9592 18.4571 31.2437 18.2173 30.4568C17.9774 29.6699 17.9354 28.836 18.095 28.029C18.2546 27.222 18.6108 26.4668 19.1321 25.8305C19.6534 25.1941 20.3237 24.6962 21.0835 24.3808C21.8433 24.0655 22.6691 23.9425 23.4878 24.0228C24.3065 24.1031 25.0928 24.3841 25.7769 24.841C26.461 25.2978 27.0218 25.9164 27.4096 26.6419C27.7974 27.3674 28.0002 28.1774 28 29C28.0019 29.659 27.8719 30.3116 27.6177 30.9196C27.3636 31.5275 26.9903 32.0785 26.52 32.54L27.52 36.6C27.6078 36.9557 27.6137 37.3267 27.5373 37.685C27.4608 38.0433 27.304 38.3795 27.0787 38.6684C26.8534 38.9573 26.5654 39.1912 26.2365 39.3526C25.9076 39.514 25.5464 39.5986 25.18 39.6H25.19ZM23 26C22.3729 26.0028 21.7624 26.202 21.2544 26.5696C20.7464 26.9373 20.3663 27.4549 20.1677 28.0497C19.9691 28.6445 19.9618 29.2866 20.147 29.8858C20.3321 30.4849 20.7004 31.011 21.2 31.39L21.72 31.79L20.4 37.08C20.3843 37.1421 20.3833 37.207 20.3972 37.2695C20.4111 37.332 20.4395 37.3904 20.48 37.44C20.5167 37.4903 20.5649 37.531 20.6206 37.5589C20.6762 37.5867 20.7378 37.6008 20.8 37.6H25.18C25.2422 37.6008 25.3038 37.5867 25.3594 37.5589C25.4151 37.531 25.4633 37.4903 25.5 37.44C25.5405 37.3904 25.5689 37.332 25.5828 37.2695C25.5967 37.207 25.5957 37.1421 25.58 37.08L24.26 31.79L24.78 31.39C25.2783 31.012 25.646 30.4878 25.8317 29.8905C26.0174 29.2933 26.0118 28.653 25.8157 28.0591C25.6195 27.4652 25.2427 26.9474 24.7379 26.5783C24.233 26.2091 23.6254 26.0069 23 26Z" fill="black"/>
<path d="M39 42H7V44H39V42Z" fill="black"/>
<path d="M36 22H29.75V12C29.7159 10.3759 29.0385 8.83171 27.8666 7.7067C26.6947 6.58169 25.1242 5.96784 23.5 6C21.8758 5.96784 20.3053 6.58169 19.1334 7.7067C17.9615 8.83171 17.2841 10.3759 17.25 12V22H11V12C11.0709 8.75261 12.4265 5.66582 14.7697 3.41637C17.1129 1.16691 20.2524 -0.061659 23.5 1.22515e-06C26.7476 -0.061659 29.8871 1.16691 32.2303 3.41637C34.5735 5.66582 35.9291 8.75261 36 12V22ZM31.83 20H33.92V12C33.8596 9.29369 32.7291 6.72163 30.776 4.84726C28.8229 2.9729 26.2065 1.94905 23.5 2C20.7935 1.94905 18.1771 2.9729 16.224 4.84726C14.2709 6.72163 13.1404 9.29369 13.08 12V20H15.17V12C15.2173 9.83566 16.1206 7.77832 17.682 6.27877C19.2434 4.77923 21.3355 3.95979 23.5 4C25.6645 3.95979 27.7566 4.77923 29.318 6.27877C30.8794 7.77832 31.7827 9.83566 31.83 12V20Z" fill="black"/>
</g>
<defs>
<clipPath id="clip0">
<rect width="48" height="60" fill="white"/>
</clipPath>
</defs>
</svg>
