<svg width="111" height="37" viewBox="0 0 111 37" fill="none" xmlns="http://www.w3.org/2000/svg">
<path d="M3.464 10.336V8.086H8.378V5.512H3.464V3.316H9.17V0.651999H0.188V13H9.26V10.336H3.464ZM21.9388 13L18.1948 6.61L21.7768 0.651999H18.1228L15.9088 4.648L13.6408 0.651999H9.98675L13.6408 6.7L9.91475 13H13.5508L15.9268 8.716L18.3028 13H21.9388ZM28.4396 0.651999H23.0396V13H26.3156V9.022H28.4396C31.5536 9.022 33.2816 7.51 33.2816 4.81C33.2816 2.092 31.5536 0.651999 28.4396 0.651999ZM28.4396 6.376H26.3156V3.28H28.4396C29.4296 3.28 29.9696 3.892 29.9696 4.828C29.9696 5.8 29.4296 6.376 28.4396 6.376ZM38.1105 10.336V8.086H43.0245V5.512H38.1105V3.316H43.8165V0.651999H34.8345V13H43.9065V10.336H38.1105ZM56.4952 10.462C56.3152 10.516 56.0992 10.552 55.7932 10.552C55.3252 10.552 55.0192 10.354 54.7672 9.868L53.9392 8.212C55.1812 7.528 55.9552 6.358 55.9552 4.756C55.9552 2.146 54.2272 0.651999 51.0592 0.651999H45.8032V13H49.0792V8.86H50.6812L51.8152 11.092C52.4272 12.298 53.1652 13.09 55.1272 13.09C55.8292 13.09 56.3332 12.982 56.6572 12.874L56.4952 10.462ZM49.0792 3.28H51.0592C52.1032 3.28 52.6432 3.892 52.6432 4.828C52.6432 5.782 52.1032 6.358 51.0592 6.358H49.0792V3.28ZM58.231 13H61.507V0.651999H58.231V13ZM67.1671 10.336V8.086H72.0811V5.512H67.1671V3.316H72.8731V0.651999H63.8911V13H72.9631V10.336H67.1671ZM82.7439 0.651999V8.176L77.8299 0.651999H74.8599V13H78.0279V5.476L82.9419 13H85.9119V0.651999H82.7439ZM93.8151 10.282C92.2131 10.282 91.0251 8.968 91.0071 6.808C90.9891 4.666 92.1951 3.334 93.7971 3.334C95.4711 3.334 96.2091 4.378 96.3891 5.386H99.5931C99.3231 2.686 97.5771 0.489999 93.7071 0.489999C90.2151 0.489999 87.6951 3.028 87.6951 6.808C87.6951 10.516 90.2151 13.126 93.7071 13.126C97.6131 13.126 99.3051 10.876 99.5931 8.23H96.3891C96.2271 9.292 95.5611 10.282 93.8151 10.282ZM104.503 10.336V8.086H109.417V5.512H104.503V3.316H110.209V0.651999H101.227V13H110.299V10.336H104.503ZM3.464 33.156V23.652H0.188V36H9.098V33.156H3.464ZM18.3736 36H21.6676L17.3836 23.652H13.4956L9.21162 36H12.4876L13.1716 33.714H17.6896L18.3736 36ZM13.9096 31.266L15.4396 26.226L16.9516 31.266H13.9096ZM30.695 23.652V31.176L25.781 23.652H22.811V36H25.979V28.476L30.893 36H33.863V23.652H30.695ZM42.1083 29.466V31.86H44.3583C43.9803 32.706 43.1163 33.282 41.8743 33.282C39.9843 33.282 38.9583 31.986 38.9583 29.862C38.9583 27.576 40.1283 26.334 41.9103 26.334C43.4223 26.334 44.1423 27.234 44.3583 28.188H47.5443C47.2923 25.506 45.3843 23.49 41.9283 23.49C38.0403 23.49 35.6463 26.046 35.6463 29.826C35.6463 33.552 37.9503 36.126 41.5863 36.126C43.4403 36.126 44.6643 35.46 45.4203 34.416V36H47.7063V29.466H42.1083ZM57.2112 23.652V30.978C57.2112 32.49 56.4552 33.3 55.0512 33.3C53.6292 33.3 52.8732 32.49 52.8732 30.978V23.652H49.5972L49.5792 30.978C49.5792 34.182 51.6312 36.126 55.0512 36.126C58.4172 36.126 60.4872 34.182 60.4872 30.978V23.652H57.2112ZM70.2818 36H73.5758L69.2918 23.652H65.4038L61.1198 36H64.3958L65.0798 33.714H69.5978L70.2818 36ZM65.8178 31.266L67.3478 26.226L68.8598 31.266H65.8178ZM80.2177 29.466V31.86H82.4677C82.0897 32.706 81.2257 33.282 79.9837 33.282C78.0937 33.282 77.0677 31.986 77.0677 29.862C77.0677 27.576 78.2377 26.334 80.0197 26.334C81.5317 26.334 82.2517 27.234 82.4677 28.188H85.6537C85.4017 25.506 83.4937 23.49 80.0377 23.49C76.1497 23.49 73.7557 26.046 73.7557 29.826C73.7557 33.552 76.0597 36.126 79.6957 36.126C81.5497 36.126 82.7737 35.46 83.5297 34.416V36H85.8157V29.466H80.2177ZM91.1085 33.336V31.086H96.0225V28.512H91.1085V26.316H96.8145V23.652H87.8325V36H96.9045V33.336H91.1085Z" fill="black"/>
</svg>
